<svg xmlns="http://www.w3.org/2000/svg" viewBox="0 0 100 100">
    <path d="M50,5A45,45,0,1,1,5,50,45,45,0,0,1,50,5M50,0a50,50,0,1,0,50,50A50,50,0,0,0,50,0Z" fill="#007bff"/>
    <path d="M50,25a2.5,2.5,0,0,1,2.5,2.5V45a2.5,2.5,0,0,1-5,0V27.5A2.5,2.5,0,0,1,50,25Z" fill="#fff"/>
    <path d="M50,55a2.5,2.5,0,0,1,2.5,2.5V72.5a2.5,2.5,0,0,1-5,0V57.5A2.5,2.5,0,0,1,50,55Z" fill="#fff"/>
    <path d="M62.5,40a2.5,2.5,0,0,1,2.5,2.5V57.5a2.5,2.5,0,0,1-5,0V42.5A2.5,2.5,0,0,1,62.5,40Z" fill="#fff" transform="rotate(90 62.5 50)"/>
    <path d="M37.5,40a2.5,2.5,0,0,1,2.5,2.5V57.5a2.5,2.5,0,0,1-5,0V42.5A2.5,2.5,0,0,1,37.5,40Z" fill="#fff" transform="rotate(90 37.5 50)"/>
</svg>